<svg fill="#000" role="img" viewBox="0 0 25 24" xmlns="http://www.w3.org/2000/svg"><title>Caddy</title><path d="M11.557 0c-0.876 0-1.765 0.096-2.656 0.3a11.833 11.833 0 0 0-5.068 2.521 11.065 11.065 0 0 0-2.457 2.942A10.545 10.545 0 0 0 0.328 8.442c-0.414 1.686-0.416 3.472-0.044 5.254 0.088 0.421 0.19 0.842 0.322 1.261a12.333 12.333 0 0 0 1.73 3.881 3.406 3.406 0 0 0-0.09 0.445 3.458 3.458 0 0 0 2.964 3.861 3.413 3.413 0 0 0 2.027-0.36c1.088 0.531 2.258 0.899 3.475 1.082a12.135 12.135 0 0 0 4.459-0.161 12.037 12.037 0 0 0 5.137-2.587 11.076 11.076 0 0 0 2.448-3.011 11.619 11.619 0 0 0 1.411-4.605 11.671 11.671 0 0 0-0.518-4.511c0.182-0.08 0.352-0.182 0.506-0.305a0.462 0.462 0 0 0 0.001 0c0.418-0.335 0.721-0.826 0.809-1.397a2.233 2.233 0 0 0-1.863-2.533 2.201 2.201 0 0 0-1.254 0.178c-0.04-0.045-0.081-0.09-0.118-0.135a12.169 12.169 0 0 0-3.618-3.05 13.892 13.892 0 0 0-1.831-0.843 14.102 14.102 0 0 0-2.144-0.637A12.615 12.615 0 0 0 11.556 0Zm0.743 0.341c0.359-0.004 0.716 0.01 1.07 0.044a10.295 10.295 0 0 1 2.855 0.665c1.024 0.406 1.967 0.997 2.817 1.699 0.836 0.689 1.563 1.509 2.176 2.422 0.027 0.041 0.05 0.083 0.073 0.125a2.206 2.206 0 0 0-0.453 2.754c-0.164 0.119-1.01 0.72-1.7 1.231-0.431 0.321-0.763 0.58-0.763 0.58l0.604 0.708s0.308-0.287 0.692-0.664c0.595-0.585 1.279-1.283 1.452-1.461a2.208 2.208 0 0 0 1.985 0.705 11.686 11.686 0 0 1-0.014 4.211 11.875 11.875 0 0 1-1.535 4.056 12.846 12.846 0 0 1-2.163 2.692c-1.238 1.171-2.74 2.104-4.482 2.634a11.267 11.267 0 0 1-4.135 0.504 11.49 11.49 0 0 1-3.181-0.679 3.439 3.439 0 0 0 1.475-2.387 3.408 3.408 0 0 0-0.306-1.917c0.187-0.169 0.419-0.378 0.682-0.625 1.056-0.994 2.449-2.397 2.449-2.397l-0.489-0.623s-1.696 1.012-2.915 1.798c-0.32 0.206-0.596 0.393-0.809 0.538a3.406 3.406 0 0 0-1.577-0.635c-1.568-0.206-3.046 0.699-3.629 2.099a10.743 10.743 0 0 1-0.724-1.122A11.365 11.365 0 0 1 0.769 14.914a10.772 10.772 0 0 1-0.208-1.262c-0.171-1.72 0.107-3.391 0.654-4.947a13.477 13.477 0 0 1 1.131-2.382c0.593-1.007 1.299-1.948 2.154-2.764A11.462 11.462 0 0 1 12.3 0.34Zm-0.153 3.39a3.994 3.994 0 0 0-3.976 3.976v2.456h-0.978c-0.782 0-1.433 0.65-1.433 1.433v3.955h1.519v-3.87h9.735v6.519H10.439v1.52h6.661c0.782 0 1.433-0.65 1.433-1.433v-6.692c0-0.782-0.651-1.433-1.433-1.433h-0.979v-2.456a3.994 3.994 0 0 0-3.975-3.975z m0 1.519a2.468 2.468 0 0 1 2.456 2.457v2.456H9.69v-2.456a2.469 2.469 0 0 1 2.456-2.457z m10.554 0.408a1.304 1.304 0 0 1 1.349 1.493c-0.051 0.332-0.226 0.614-0.472 0.812-0.277 0.222-0.635 0.331-1.007 0.274a1.304 1.304 0 0 1-1.088-1.477 1.306 1.306 0 0 1 1.218-1.102zM5.614 17.646a2.102 2.102 0 0 1 1.995 1.35c0.121 0.312 0.165 0.654 0.119 1.007a2.097 2.097 0 0 1-2.341 1.798 2.098 2.098 0 0 1-1.797-2.341 2.099 2.099 0 0 1 2.024-1.814z"/></svg>